<svg width="23" height="16" viewBox="0 0 23 16" fill="none" xmlns="http://www.w3.org/2000/svg">
<path d="M22.8 4V14C22.8 15.1 21.9 16 20.8 16H4.79999C4.24999 16 3.79999 15.55 3.79999 15C3.79999 14.45 4.24999 14 4.79999 14H20.8V4C20.8 3.45 21.25 3 21.8 3C22.35 3 22.8 3.45 22.8 4ZM3.79999 12C2.13999 12 0.799988 10.66 0.799988 9V3C0.799988 1.34 2.13999 0 3.79999 0H15.8C17.46 0 18.8 1.34 18.8 3V10C18.8 11.1 17.9 12 16.8 12H3.79999ZM6.79999 6C6.79999 7.66 8.13999 9 9.79999 9C11.46 9 12.8 7.66 12.8 6C12.8 4.34 11.46 3 9.79999 3C8.13999 3 6.79999 4.34 6.79999 6Z" fill="url(#paint0_linear)"/>
<defs>
<linearGradient id="paint0_linear" x1="11.8" y1="0" x2="11.8" y2="16" gradientUnits="userSpaceOnUse">
<stop stop-color="#00928A"/>
<stop offset="1" stop-color="#0EACA8"/>
</linearGradient>
</defs>
</svg>
