<svg width="18" height="20" viewBox="0 0 18 20" fill="none" xmlns="http://www.w3.org/2000/svg">
<path d="M14.5452 1.50874C13.6128 0.452496 11.9253 0 9.76651 0H3.50156C3.06031 0 2.68532 0.318748 2.61532 0.749994L0.00662796 17.1636C-0.0446216 17.4874 0.207876 17.7799 0.537874 17.7799H4.40534L5.37659 11.6674L5.34659 11.8599C5.41534 11.4287 5.78908 11.1099 6.23033 11.1099H8.06781C11.679 11.1099 14.5053 9.65492 15.3315 5.44621C15.3565 5.32121 15.3953 5.08121 15.3953 5.08121C15.6302 3.52372 15.394 2.46748 14.5452 1.50874Z" fill="url(#paint0_linear)"/>
<path d="M16.3736 5.87891C15.4761 10.0226 12.6124 12.2151 8.06742 12.2151H6.41993L5.18994 20H7.86242C8.24867 20 8.57741 19.7213 8.63741 19.3425L8.66866 19.1776L9.28366 15.3138L9.32366 15.1013C9.38366 14.7226 9.71241 14.4438 10.0974 14.4438H10.5861C13.7449 14.4438 16.2174 13.1713 16.9398 9.49013C17.2298 8.01264 17.0898 6.7739 16.3736 5.87891Z" fill="url(#paint1_linear)"/>
<defs>
<linearGradient id="paint0_linear" x1="15.4811" y1="8.88993" x2="4.48556e-08" y2="8.88993" gradientUnits="userSpaceOnUse">
<stop stop-color="#00928A"/>
<stop offset="1" stop-color="#0EACA8"/>
</linearGradient>
<linearGradient id="paint1_linear" x1="17.0814" y1="12.9395" x2="5.18994" y2="12.9395" gradientUnits="userSpaceOnUse">
<stop stop-color="#00928A"/>
<stop offset="1" stop-color="#0EACA8"/>
</linearGradient>
</defs>
</svg>
